# xmcd
#
# Track frame offsets: 
#        150
#        21415
#        34730
#        47750
#        61747
#        77890
#        89757
#        103780
#
# Disc length: 1587 seconds
#
# Revision: 5
# Processed by: cddbd v1.5.2PL0 Copyright (c) Steve Scherf et al.
# Submitted via: ExactAudioCopyFreeDBPlugin 1.0
#
DISCID=66063108
DTITLE=Alan Jackson - Greatest Hits Volume II And Some Other Stuff
DYEAR=2003
DGENRE=Country
TTITLE0=Job Description
TTITLE1=Tropical Depression
TTITLE2=Let's Get Back To Me And You
TTITLE3=You Can't Give Up On Love
TTITLE4=Hole In The Wall
TTITLE5=Buicks To The Moon
TTITLE6=When Love Comes Around
TTITLE7=The Sounds
EXTD=
EXTT0=
EXTT1=
EXTT2=
EXTT3=
EXTT4=
EXTT5=
EXTT6=
EXTT7=
PLAYORDER=
